<svg width="478" height="120" fill="none" xmlns="http://www.w3.org/2000/svg"><path fill-rule="evenodd" clip-rule="evenodd" d="M208.441 56.606c-12.855 0-22.9 9.637-22.9 22.538s9.791 22.456 22.9 22.456c13.11 0 23.072-9.72 23.072-22.538 0-12.736-9.792-22.456-23.072-22.456zm-12.598 22.541c0 7.54 5.364 13.155 12.685 13.155 7.321 0 12.683-5.614 12.683-13.155 0-7.54-5.362-13.237-12.77-13.237-7.32 0-12.598 5.612-12.598 13.237zm203.907-1.946c0-12.67-9.141-21.573-21.416-21.573-13.034 0-22.6 9.931-22.6 23.028 0 13.785 10.243 22.944 22.77 22.944 10.581 0 18.876-6.336 20.991-15.324h-10.582c-1.524 3.938-5.248 6.165-10.243 6.165-6.519 0-11.428-4.11-12.527-11.302h33.604v-3.938h.003zm-21.585-12.585c-5.248 0-9.818 2.995-11.428 9.16h22.601c-1.016-5.822-5.417-9.16-11.173-9.16zM446.7 77.201c0-12.67-9.141-21.573-21.416-21.573-13.034 0-22.6 9.931-22.6 23.028 0 13.785 10.243 22.944 22.77 22.944 10.581 0 18.876-6.336 20.991-15.324h-10.582c-1.524 3.938-5.248 6.165-10.243 6.165-6.519 0-11.428-4.11-12.527-11.302h33.604v-3.938h.003zm-21.585-12.585c-5.248 0-9.818 2.995-11.428 9.16h22.601c-1.016-5.822-5.417-9.16-11.173-9.16zm-93.553-8.139c-5.626 0-10.326 2.354-13.683 6.301V39h-10.073v61.76h9.904v-5.713c3.358 4.116 8.145 6.553 13.852 6.553 12.087 0 21.238-9.578 21.238-22.519 0-12.94-9.319-22.604-21.238-22.604zM317.543 79.08c0 7.562 5.289 13.192 12.508 13.192 7.218 0 12.505-5.63 12.505-13.192 0-7.644-5.118-13.274-12.423-13.274-7.218 0-12.59 5.713-12.59 13.274zm-17.758-6.778c0-9.4-5.856-15.696-18.259-15.696-11.713 0-18.258 5.794-19.552 14.692h10.251c.516-3.442 3.272-6.296 9.13-6.296 5.255 0 7.838 2.266 7.838 5.038 0 3.61-4.739 4.531-10.595 5.12-7.923.838-17.742 3.524-17.742 13.598 0 7.808 5.944 12.842 15.419 12.842 7.406 0 12.057-3.022 14.384-7.808.345 4.28 3.618 7.052 8.184 7.052h6.029v-8.981h-5.084v-19.56h-.003zM278.166 93.29c6.288 0 11.456-4.28 11.456-10.074V79.02c-1.293 1.933-3.876 2.94-8.527 3.36-4.824.502-10.079 1.678-10.079 5.958 0 3.356 3.273 4.952 7.15 4.952z" fill="#fff"/><path d="M171.229 66.991H165v-9.034h16.193V101.6h-9.964V66.991zm-1.413-20.599c0-3.714 2.741-6.414 6.395-6.414 3.653 0 6.395 2.7 6.395 6.414 0 3.713-2.742 6.413-6.395 6.413-3.657 0-6.395-2.7-6.395-6.413zm83.568 55.208h4.538v-8.916h-2.393c-3.754 0-5.735-.52-5.735-4.182V67.024h8.128V58.05h-8.128V44.87h-9.117v13.18h-6.23v8.974h6.23v22.025c0 8.845 4.125 12.551 12.707 12.551z" fill="#fff"/><path d="M84.078 119.969H51.074a15.88 15.88 0 01-11.234-4.666 15.944 15.944 0 01-4.653-11.259V70.976a49.08 49.08 0 018.242-27.227 48.929 48.929 0 0121.949-18.05 48.812 48.812 0 0128.257-2.789 48.875 48.875 0 0125.041 13.412 49.043 49.043 0 0113.384 25.093 49.1 49.1 0 01-2.783 28.316 48.98 48.98 0 01-18.013 21.994 48.832 48.832 0 01-27.17 8.259l-.016-.015z" fill="#EFB91B"/><path d="M84.078 120h-12.51a36.5 36.5 0 00-10.657-25.742 36.349 36.349 0 00-25.688-10.68V71.044a48.804 48.804 0 0134.546 14.34A49.009 49.009 0 0184.079 120zm30.157-10.385a79.85 79.85 0 00-22.651-46.093 79.562 79.562 0 00-45.998-22.698 48.723 48.723 0 00-6.873 11.957 67.196 67.196 0 0143.984 19.646 67.46 67.46 0 0119.605 44.075 48.637 48.637 0 0011.933-6.887z" fill="#221E1F"/><path d="M35.223 53.344c0-3.49-1.033-6.903-2.968-9.805a17.62 17.62 0 00-7.904-6.5 17.577 17.577 0 00-10.175-1.004 17.6 17.6 0 00-9.018 4.83A17.66 17.66 0 00.338 49.9a17.682 17.682 0 001.003 10.196 17.64 17.64 0 006.486 7.92 17.586 17.586 0 009.785 2.975h17.611V53.344z" fill="#8D8F91"/><path d="M55.97 50.197A29.424 29.424 0 0064 35.14a29.462 29.462 0 00-1.67-16.99A29.391 29.391 0 0051.524 4.956a29.3 29.3 0 00-32.605 0A29.392 29.392 0 008.11 18.152a29.462 29.462 0 00-1.67 16.99 29.423 29.423 0 008.031 15.055l20.752 20.795L55.97 50.197z" fill="#fff"/></svg>