<svg width="115" height="30" viewBox="0 0 115 30" fill="none" xmlns="http://www.w3.org/2000/svg">
<g clip-path="url(#clip0_6394_58365)">
<path fill-rule="evenodd" clip-rule="evenodd" d="M50.1461 13.7292C47.0534 13.7292 44.6367 16.0665 44.6367 19.1956C44.6367 22.3246 46.9923 24.6421 50.1461 24.6421C53.3002 24.6421 55.6969 22.2846 55.6969 19.1757C55.6969 16.0867 53.3411 13.7292 50.1461 13.7292V13.7292ZM47.1152 19.1963C47.1152 21.025 48.4057 22.3869 50.1671 22.3869C51.9284 22.3869 53.2184 21.0253 53.2184 19.1963C53.2184 17.3675 51.9284 15.9858 50.1461 15.9858C48.385 15.9858 47.1152 17.3469 47.1152 19.1963V19.1963ZM96.1724 18.7243C96.1724 15.6513 93.9732 13.492 91.02 13.492C87.8842 13.492 85.5827 15.9006 85.5827 19.0772C85.5827 22.4206 88.0471 24.6421 91.0609 24.6421C93.6065 24.6421 95.6022 23.1053 96.111 20.9254H93.5651C93.1985 21.8805 92.3025 22.4206 91.1008 22.4206C89.5324 22.4206 88.3514 21.4238 88.087 19.6794H96.1716V18.7243H96.1724V18.7243ZM90.9793 15.6719C89.7167 15.6719 88.6172 16.3983 88.2299 17.8936H93.6674C93.4229 16.4815 92.3641 15.6719 90.9793 15.6719ZM107.468 18.7243C107.468 15.6513 105.269 13.492 102.315 13.492C99.1797 13.492 96.8782 15.9006 96.8782 19.0772C96.8782 22.4206 99.3426 24.6421 102.356 24.6421C104.902 24.6421 106.898 23.1053 107.407 20.9254H104.861C104.494 21.8805 103.598 22.4206 102.396 22.4206C100.828 22.4206 99.6469 21.4238 99.3825 19.6794H107.467V18.7243H107.468V18.7243ZM102.275 15.6719C101.012 15.6719 99.9128 16.3983 99.5254 17.8936H104.963C104.718 16.4815 103.66 15.6719 102.275 15.6719ZM79.7673 13.6979C78.4138 13.6979 77.283 14.2688 76.4754 15.2261V9.45898H74.0519V24.4383H76.4347V23.0527C77.2426 24.051 78.3943 24.6421 79.7673 24.6421C82.6753 24.6421 84.8769 22.319 84.8769 19.1803C84.8769 16.0418 82.6348 13.6979 79.7673 13.6979ZM76.3945 19.18C76.3945 21.0141 77.667 22.3796 79.4038 22.3796C81.1403 22.3796 82.4123 21.0141 82.4123 19.18C82.4123 17.326 81.181 15.9605 79.4235 15.9605C77.6869 15.9605 76.3945 17.3462 76.3945 19.18V19.18ZM72.1222 17.5361C72.1222 15.2562 70.7133 13.7292 67.7293 13.7292C64.9114 13.7292 63.3367 15.1344 63.0254 17.2926H65.4917C65.6158 16.4578 66.2789 15.7655 67.6882 15.7655C68.9525 15.7655 69.5739 16.3151 69.5739 16.9875C69.5739 17.863 68.4338 18.0864 67.0249 18.2293C65.1187 18.4325 62.7564 19.084 62.7564 21.5273C62.7564 23.4211 64.1865 24.6421 66.466 24.6421C68.2478 24.6421 69.3668 23.9091 69.9266 22.7483C70.0096 23.7864 70.7971 24.4587 71.8956 24.4587H73.3461V22.2804H72.1229V17.5363H72.1222V17.5361ZM66.921 22.6265C68.4338 22.6265 69.6771 21.5885 69.6771 20.1832V19.1655C69.3661 19.6343 68.7446 19.8786 67.6257 19.9804C66.4651 20.1022 65.2008 20.3874 65.2008 21.4255C65.2008 22.2394 65.9882 22.6265 66.921 22.6265V22.6265Z" fill="#221E1F"/>
<path d="M41.1939 16.249H39.6953V14.0579H43.5911V24.6431H41.1939V16.249ZM40.854 11.2529C40.854 10.3521 41.5134 9.69727 42.3925 9.69727C43.2714 9.69727 43.9311 10.3521 43.9311 11.2529C43.9311 12.1535 43.2714 12.8083 42.3925 12.8083C41.5127 12.8083 40.854 12.1535 40.854 11.2529ZM60.9592 24.6431H62.051V22.4806H61.4753C60.5721 22.4806 60.0955 22.3545 60.0955 21.4663V16.257H62.051V14.0805H60.0955V10.8838H57.9021V14.0805H56.4033V16.257H57.9021V21.599C57.9021 23.7443 58.8945 24.6431 60.9592 24.6431V24.6431Z" fill="#221E1F"/>
<path d="M20.2273 29.0973H12.287C11.7849 29.097 11.2877 28.9969 10.8239 28.8027C10.3601 28.6085 9.93891 28.3241 9.58429 27.9656C8.8673 27.2406 8.46473 26.2586 8.46484 25.2348V17.2145C8.46466 14.8642 9.15462 12.5664 10.4478 10.6108C11.7396 8.65701 13.5773 7.13345 15.7284 6.23295C17.8779 5.33332 20.2441 5.09787 22.5266 5.55651C24.8099 6.01561 26.9067 7.14776 28.5511 8.80947C30.1972 10.473 31.3176 12.5908 31.7711 14.8956C32.2252 17.2013 31.9922 19.5909 31.1016 21.7633C30.2119 23.9343 28.7038 25.7907 26.7679 27.0978C24.8339 28.4036 22.5588 29.1008 20.2312 29.1009L20.2273 29.0973Z" fill="#EFB91B"/>
<path d="M20.2265 29.1058H17.2167C17.2146 26.7647 16.2927 24.5198 14.6528 22.8623C13.015 21.2068 10.7919 20.2751 8.47266 20.2719V17.2319C10.0168 17.2322 11.5458 17.5396 12.9719 18.1364C14.3981 18.7332 15.6935 19.6078 16.7839 20.71C18.989 22.9386 20.2271 25.958 20.2267 29.1058H20.2265ZM27.4818 26.587C26.9361 22.3572 25.0204 18.4274 22.0323 15.4075C19.0475 12.3912 15.1564 10.4555 10.9658 9.90234C10.2811 10.7851 9.7243 11.7616 9.3123 12.8024C13.3025 13.0177 17.0723 14.7152 19.8942 17.5674C22.7197 20.4228 24.3994 24.2298 24.6109 28.2574C25.6417 27.8407 26.6083 27.2783 27.4818 26.587V26.587Z" fill="#221E1F"/>
<path d="M8.47417 12.9386C8.47417 12.0921 8.22565 11.2643 7.76012 10.5605C7.29492 9.8569 6.63314 9.30825 5.85853 8.98397C5.0845 8.66005 4.23246 8.57529 3.41057 8.74046C2.58826 8.90577 1.83316 9.31349 1.24096 9.91193C0.648223 10.5109 0.244715 11.2734 0.0813402 12.1033C-0.0820625 12.9336 0.00189836 13.794 0.322648 14.5762C0.643012 15.358 1.18603 16.0264 1.88309 16.4972C2.57956 16.9675 3.39893 17.2186 4.23722 17.2187H8.47417V12.9386Z" fill="#8D8F91"/>
<path d="M13.4659 12.1744C14.4536 11.1762 15.1258 9.90543 15.3978 8.52246C15.6703 7.13899 15.5305 5.7052 14.9961 4.40168C14.4623 3.09939 13.5576 1.98581 12.3963 1.20159C11.2359 0.418218 9.87074 0 8.47415 0C7.07756 0 5.71244 0.418218 4.552 1.20159C3.39039 1.98584 2.48544 3.09961 1.95151 4.40217C1.41711 5.70568 1.27731 7.13948 1.54973 8.52294C1.82187 9.90577 2.4942 11.1764 3.48187 12.1744L8.47451 17.218L13.4659 12.1744Z" fill="white"/>
</g>
<defs>
<clipPath id="clip0_6394_58365">
<rect width="115" height="29.1049" fill="white"/>
</clipPath>
</defs>
</svg>
