<svg width="120" height="120" viewBox="0 0 120 120" fill="none" xmlns="http://www.w3.org/2000/svg">
    <path fill-rule="evenodd" clip-rule="evenodd" d="M42.8887 89.9818L53.3688 92.7325V89.1351L54.2244 88.2885H60.2135V95.4832H53.7985L45.8814 92.0965L42.8887 89.9818Z" fill="#CDBDB2"/>
    <path fill-rule="evenodd" clip-rule="evenodd" d="M77.1119 89.9818L66.8448 92.7325V89.1351L65.9892 88.2885H60V95.4832H66.4151L74.3322 92.0965L77.1119 89.9818Z" fill="#CDBDB2"/>
    <path fill-rule="evenodd" clip-rule="evenodd" d="M54.2238 82.1512L53.3682 89.1352L54.4367 88.2886H65.5594L66.8447 89.1352L65.9891 82.1512L64.2779 81.0901L55.722 81.3046L54.2238 82.1512Z" fill="#393939"/>
    <path fill-rule="evenodd" clip-rule="evenodd" d="M48.4473 34.9491L53.5808 46.8023L55.9347 81.3045H64.2777L66.8445 46.8023L71.5483 34.9491H48.4473Z" fill="#F89C35"/>
    <path fill-rule="evenodd" clip-rule="evenodd" d="M25.9892 60.9847L20 78.1286L34.9748 77.2819H44.5993V69.8728L44.1696 54.6329L42.0325 56.3262L25.9892 60.9847Z" fill="#F89D35"/>
    <path fill-rule="evenodd" clip-rule="evenodd" d="M37.3242 62.8888L54.8658 63.3102L52.9417 72.202L44.5987 70.0835L37.3242 62.8888Z" fill="#D87C30"/>
    <path fill-rule="evenodd" clip-rule="evenodd" d="M37.3242 63.0995L44.5987 69.8727V76.646L37.3242 63.0995Z" fill="#EA8D3A"/>
    <path fill-rule="evenodd" clip-rule="evenodd" d="M44.5996 70.0835L53.1556 72.202L55.9353 81.3045L54.0112 82.3619L44.5996 76.8567V70.0835Z" fill="#F89D35"/>
    <path fill-rule="evenodd" clip-rule="evenodd" d="M44.5999 76.8567L42.8887 89.9817L54.2243 82.1511L44.5999 76.8567Z" fill="#EB8F35"/>
    <path fill-rule="evenodd" clip-rule="evenodd" d="M54.8665 63.3103L55.935 81.3046L52.7256 72.0967L54.8665 63.3103Z" fill="#EA8E3A"/>
    <path fill-rule="evenodd" clip-rule="evenodd" d="M34.7578 77.0712L44.5991 76.8567L42.8879 89.9817L34.7578 77.0712Z" fill="#D87C30"/>
    <path fill-rule="evenodd" clip-rule="evenodd" d="M24.7077 95.6977L42.8881 89.9819L34.7581 77.0713L20 78.1287L24.7077 95.6977Z" fill="#EB8F35"/>
    <path fill-rule="evenodd" clip-rule="evenodd" d="M53.5805 46.8024L44.3857 54.4223L37.3242 62.8888L54.8658 63.5248L53.5805 46.8024Z" fill="#E8821E"/>
    <path fill-rule="evenodd" clip-rule="evenodd" d="M42.8887 89.9818L54.2243 82.1511L53.3688 88.9244V92.7324L45.6684 91.2499L42.8887 89.9818Z" fill="#DFCEC3"/>
    <path fill-rule="evenodd" clip-rule="evenodd" d="M77.112 89.9818L65.9893 82.1511L66.8449 88.9244V92.7324L74.5452 91.2499L77.112 89.9818Z" fill="#DFCEC3"/>
    <path fill-rule="evenodd" clip-rule="evenodd" d="M50.1591 67.1221L52.5129 71.9913L44.1699 69.8728L50.1591 67.1221Z" fill="#393939"/>
    <path fill-rule="evenodd" clip-rule="evenodd" d="M24.4902 25L53.5805 46.8023L48.6636 34.9491L24.4902 25Z" fill="#E88F35"/>
    <path fill-rule="evenodd" clip-rule="evenodd" d="M24.4909 25L20.6426 36.6425L22.7797 49.3423L21.2852 50.189L23.4223 52.093L21.7111 53.5756L24.065 55.6904L22.5667 56.9622L25.9891 61.1955L42.0324 56.3263C49.8735 50.1175 53.723 46.9428 53.5811 46.8023C53.4391 46.6619 43.7424 39.3944 24.4909 25Z" fill="#8E5A30"/>
    <path fill-rule="evenodd" clip-rule="evenodd" d="M94.0105 60.9847L99.9997 78.1286L85.0249 77.2819H75.4004V69.8728L75.8263 54.6329L77.9672 56.3262L94.0105 60.9847Z" fill="#F89D35"/>
    <path fill-rule="evenodd" clip-rule="evenodd" d="M82.6716 62.8888L65.1338 63.3102L67.0579 72.202L75.4009 70.0835L82.6716 62.8888Z" fill="#D87C30"/>
    <path fill-rule="evenodd" clip-rule="evenodd" d="M82.671 63.0995L75.4004 69.8727V76.646L82.671 63.0995Z" fill="#EA8D3A"/>
    <path fill-rule="evenodd" clip-rule="evenodd" d="M75.4001 70.0835L66.8442 72.202L64.0645 81.3045L65.9886 82.3619L75.4001 76.8567V70.0835Z" fill="#F89D35"/>
    <path fill-rule="evenodd" clip-rule="evenodd" d="M75.4008 76.8567L77.112 89.9817L65.9893 82.3618L75.4008 76.8567Z" fill="#EB8F35"/>
    <path fill-rule="evenodd" clip-rule="evenodd" d="M65.133 63.3103L64.0645 81.3046L67.2701 72.0967L65.133 63.3103Z" fill="#EA8E3A"/>
    <path fill-rule="evenodd" clip-rule="evenodd" d="M85.2378 77.0712L75.4004 76.8567L77.1116 89.9817L85.2378 77.0712Z" fill="#D87C30"/>
    <path fill-rule="evenodd" clip-rule="evenodd" d="M95.2918 95.6977L77.1113 89.9819L85.2376 77.0713L99.9994 78.1287L95.2918 95.6977Z" fill="#EB8F35"/>
    <path fill-rule="evenodd" clip-rule="evenodd" d="M66.4153 46.8024L75.6139 54.4223L82.6716 62.8888L65.1338 63.5248L66.4153 46.8024Z" fill="#E8821E"/>
    <path fill-rule="evenodd" clip-rule="evenodd" d="M69.8373 67.1221L67.4873 71.9913L75.8265 69.8728L69.8373 67.1221Z" fill="#393939"/>
    <path fill-rule="evenodd" clip-rule="evenodd" d="M95.5053 25L66.415 46.8023L71.3357 34.9491L95.5053 25Z" fill="#E88F35"/>
    <path fill-rule="evenodd" clip-rule="evenodd" d="M95.5051 25L99.3572 36.6425L97.2163 49.3423L98.7146 50.189L96.5775 52.093L98.2887 53.5756L95.9348 55.6904L97.4331 56.9622L94.0107 61.1955L77.9673 56.3263C70.1238 50.1175 66.273 46.9428 66.4149 46.8023C66.5569 46.6619 76.2536 39.3944 95.5051 25Z" fill="#8E5A30"/>
</svg>
